<svg xmlns="http://www.w3.org/2000/svg" xmlns:xlink="http://www.w3.org/1999/xlink" viewBox="0 0 80 80">
  <defs>
    <path id="a" d="M.018.125h59.584v79.857H.018z"/>
  </defs>
  <g fill="none" fill-rule="evenodd">
    <g transform="translate(10.112)">
      <mask id="b" fill="#fff">
        <use xlink:href="#a"/>
      </mask>
      <path d="M2.531 19.099c.23 4.896 12.358 8.777 27.27 8.692 13.023-.074 23.886-3.15 26.548-7.19a3.902 3.902 0 0 0-2.388-1.262 3.903 3.903 0 0 0-3.266-4.189 3.905 3.905 0 0 0-3.854-4.657c-.048.001-.096.007-.144.009.137-.403.215-.834.212-1.284a3.905 3.905 0 0 0-3.926-3.882 3.89 3.89 0 0 0-1.4.271A3.901 3.901 0 0 0 38.4 3.544a3.903 3.903 0 0 0-3.894-3.42 3.895 3.895 0 0 0-3.08 1.54A3.89 3.89 0 0 0 28.531.399a3.905 3.905 0 0 0-3.692 5.107c-.88.163-1.654.62-2.22 1.266a3.904 3.904 0 0 0-3.79-2.891 3.902 3.902 0 0 0-3.657 2.61 3.903 3.903 0 0 0-2.442 3.64c.002.366.058.718.154 1.054a3.884 3.884 0 0 0-1.584-.328 3.903 3.903 0 0 0-3.664 2.626 3.876 3.876 0 0 0-1.662-.365 3.904 3.904 0 0 0-3.882 3.927 3.88 3.88 0 0 0 .536 1.947c-.034.034-.064.072-.097.108" fill="#F9D320" mask="url(#b)"/>
      <path d="M50.974 68.158c-1.146 1.74-3.374 3.543-5.705 4.745l3.985-40.418c2.535-.814 5.01-1.893 6.832-3.441l-5.112 39.114Zm-9.67 6.43c-3.859 1.278-6.103 1.673-9.314 1.989l.5-41.534c3.548-.101 8.14-.582 12.053-1.417l-3.24 40.963Zm-23.006 0L15.06 33.627c3.912.835 8.504 1.316 12.052 1.417l.5 41.534c-3.211-.316-5.455-.711-9.314-1.988Zm-9.67-6.43L3.517 29.044c1.823 1.548 4.297 2.627 6.832 3.441l3.985 40.418c-2.331-1.202-4.558-3.005-5.704-4.745Zm42.06-54.547a3.913 3.913 0 0 1 .007 1.538 3.902 3.902 0 0 1 3.266 4.189c.944.125 1.781.587 2.388 1.261-2.661 4.041-13.525 7.117-26.548 7.192-14.911.085-27.04-3.796-27.27-8.692.033-.036.063-.074.097-.108a3.894 3.894 0 0 1-.471-1.294C.729 19.052-.135 20.145.017 21.736c.015.212 6.317 45.335 6.317 45.335C7.061 74.217 17.439 79.929 29.801 80c12.362-.07 22.74-5.783 23.467-12.93 0 0 6.302-45.122 6.317-45.334.302-3.183-3.422-6.072-8.897-8.125Z" fill="#DB382A" mask="url(#b)"/>
    </g>
    <path d="m25.171 33.626 3.239 40.963c3.859 1.277 6.102 1.672 9.314 1.988l-.5-41.534c-3.549-.101-8.14-.582-12.053-1.417M42.101 76.577c3.212-.316 5.455-.711 9.314-1.988l3.239-40.963c-3.912.835-8.504 1.316-12.052 1.417l-.5 41.534M55.38 72.903c2.332-1.202 4.559-3.005 5.705-4.745l5.112-39.114c-1.822 1.548-4.296 2.627-6.831 3.441L55.38 72.903M13.628 29.044l5.112 39.114c1.146 1.74 3.373 3.543 5.704 4.745L20.46 32.485c-2.535-.814-5.009-1.893-6.831-3.441" fill="#FFFFFE"/>
  </g>
</svg>