<svg xmlns="http://www.w3.org/2000/svg" xmlns:xlink="http://www.w3.org/1999/xlink" viewBox="0 0 80 80">
  <defs>
    <path id="a" d="M0 .087h73.921v54.979H0z"/>
    <path id="c" d="M.174.234h76.423v26.767H.174z"/>
  </defs>
  <g fill="none" fill-rule="evenodd">
    <g transform="translate(0 12.459)">
      <mask id="b" fill="#fff">
        <use xlink:href="#a"/>
      </mask>
      <path d="M45.478 39.615c.473-1.17 2.148-1.884 3.35-1.8 1.287.089 2.652 1.44 2.891 2.77.044-.048.09-.094.138-.139.413-.394.93-.656 1.496-.728a3.375 3.375 0 0 1-.048-1.215c.21-1.482 1.398-2.594 2.76-2.583.879.007 1.65.457 2.152 1.148.045-.057.094-.108.143-.16.574-2.993.938-6.373 1.021-9.961.285-12.337-2.845-22.415-6.99-22.51-4.146-.096-7.738 9.827-8.022 22.163 0 0-.22 4.5 1.109 13.015" fill="#185A30" mask="url(#b)"/>
      <path d="M73.545 53.106c.245-.41.382-.9.372-1.42.08-1.683-1.076-3.21-2.683-3.04.046-.193.076-.393.088-.6.096-1.685-1.066-3.138-2.597-3.245a3.215 3.215 0 0 0-.1-.004 3.34 3.34 0 0 0 .21-1.38c-.08-1.403-1.046-2.585-2.305-2.818a2.535 2.535 0 0 0-1.299.098c-.381-.94-1.182-1.637-2.156-1.784-.077-1.525-1.18-2.78-2.598-2.88-.892-.061-1.712.349-2.26 1.035-.502-.691-1.273-1.14-2.152-1.148-1.362-.01-2.55 1.1-2.76 2.583-.06.42-.038.831.048 1.215a2.653 2.653 0 0 0-1.496.728c-.047.045-.094.09-.138.139-.239-1.33-1.604-2.68-2.89-2.77-1.203-.084-2.9.647-3.351 1.8.198 2.011 1.455 7.492 6 12.41l.041.002c.439.397 1.01.615 1.62.56.38-.033.727-.168 1.028-.377l.073.005c.4.278.88.423 1.389.378a2.09 2.09 0 0 0 .555-.13 2.506 2.506 0 0 0 2.49 1.386 2.615 2.615 0 0 0 1.972-1.192l.136.01a2.14 2.14 0 0 0 1.577.638c.496.752 1.408 1.214 2.415 1.125a2.768 2.768 0 0 0 1.048-.309c.526.648 1.39 1.033 2.338.95.937-.082 1.729-.602 2.16-1.32.423.34.953.522 1.516.471a2.172 2.172 0 0 0 1.396-.696l.06.004c.083-.12.154-.243.22-.367l.004-.008c.01-.016.02-.032.029-.05" fill="#F9D320" mask="url(#b)"/>
      <path d="M42.209 9.212 6.562 12.727c1.06-2.056 2.65-4.02 4.185-5.031l34.497-4.51c-1.365 1.608-2.317 3.79-3.035 6.026Zm3.035 40.34-34.497-4.51c-1.535-1.01-3.125-2.975-4.185-5.03l35.647 3.514c.718 2.236 1.67 4.418 3.035 6.026ZM5.075 36.514C3.95 33.111 3.6 31.132 3.322 28.3l36.63.442c.09 3.13.515 7.18 1.251 10.63L5.075 36.514Zm0-20.29 36.128-2.856c-.736 3.45-1.16 7.5-1.25 10.63l-36.631.441c.278-2.833.627-4.811 1.753-8.215ZM56.72 3.849C54.433 1.188 52.793-.061 51.387.1c-.262.033-39.984 5.571-39.984 5.571C5.1 6.313.063 15.466 0 26.37c.062 10.903 5.1 20.056 11.403 20.697 0 0 39.797 5.559 39.984 5.572.333-.002.66-.047.984-.13a2.206 2.206 0 0 1-.852-.481l-.04-.003c-4.546-4.917-5.803-10.398-6.001-12.409l.002-.004-.002.004C44.149 31.1 44.368 26.6 44.368 26.6c.285-12.336 3.877-22.26 8.022-22.164 4.146.096 7.276 10.174 6.991 22.51-.083 3.589-.447 6.97-1.021 9.962a2.607 2.607 0 0 1 2.117-.874c.135.01.267.032.396.062C63.39 22.321 60.75 8.87 56.719 3.849Z" fill="#129B47" mask="url(#b)"/>
    </g>
    <path d="M41.203 25.827 5.075 28.683C3.95 32.087 3.6 34.065 3.322 36.898l36.63-.442c.09-3.129.515-7.179 1.251-10.63M45.244 15.646l-34.497 4.509c-1.535 1.01-3.125 2.975-4.185 5.03l35.647-3.514c.718-2.236 1.67-4.418 3.035-6.025M6.562 52.47c1.06 2.056 2.65 4.021 4.185 5.032l34.497 4.509c-1.365-1.608-2.317-3.79-3.035-6.026L6.562 52.471" fill="#FFFFFE"/>
    <g transform="translate(3.148 40.525)">
      <mask id="d" fill="#fff">
        <use xlink:href="#c"/>
      </mask>
      <path d="M36.805.675.175.234C.451 3.066.8 5.045 1.927 8.449l36.128 2.856c-.737-3.45-1.16-7.5-1.25-10.63" fill="#FFFFFE" mask="url(#d)"/>
    </g>
  </g>
</svg>